<svg xmlns="http://www.w3.org/2000/svg" viewBox="-77 -281 60 31"><defs><style>.a{fill:#373737;}.b{fill:#fff;}</style></defs><g transform="translate(-535 -670)"><path class="a" d="M9.351,0V6.66H0V0H9.351" transform="translate(458 389)"/><path class="b" d="M110.218,32.6V44.859a4.182,4.182,0,0,1-4.525,4.391c-2.757,0-4.735-1.68-4.735-4.391V32.6h-7.4l-8.811,8.958V32.6H78.6V53.964h6.114V48.778l3-3.035,6.084,8.251h12.138c6.354-.118,10.31-3.625,10.31-9.106V32.6ZM91.937,41.44,94.9,38.435v6.424a4.279,4.279,0,0,0,.03.619C93.915,44.151,92.926,42.8,91.937,41.44Z" transform="translate(401.758 366.007)"/><path class="b" d="M41.2,30.971h8.212V6.66H90.021V0H41.2Z" transform="translate(427.949 389)"/></g></svg>